<?xml version="1.0" encoding="UTF-8"?>
<svg id="Layer_1" xmlns="http://www.w3.org/2000/svg" xmlns:xlink="http://www.w3.org/1999/xlink" version="1.1" viewBox="0 0 100 100">
  <!-- Generator: Adobe Illustrator 29.2.1, SVG Export Plug-In . SVG Version: 2.1.0 Build 116)  -->
  <defs>
    <style>
      .st0 {
        fill: none;
      }

      .st1 {
        fill: #201ea6;
      }

      .st2 {
        fill: #2fedf9;
      }

      .st3 {
        fill: #fa0f9c;
      }

      .st4 {
        fill: #de1777;
      }

      .st5 {
        fill: #3735d0;
      }

      .st6 {
        fill: #4b49eb;
      }

      .st7 {
        fill: #1bbbde;
      }

      .st8 {
        clip-path: url(#clippath);
      }
    </style>
    <clipPath id="clippath">
      <rect class="st0" x="8.2" y="7.9" width="80" height="82.2"/>
    </clipPath>
  </defs>
  <g class="st8">
    <g>
      <path class="st3" d="M79.6,78.5c11.9-9.5,10.9-28.2.2-39-1.4-1.4-2.9-2.6-4.5-3.7h0c0,9.3-4.5,17.6-11.5,22.6,0,0,0,.2,0,.3,0,11.3-6.7,21-16.3,25.4,7.5,5.1,18.5,8.7,35.2,3.1,3.7-1.2-9.9-3.3-3.1-8.7h0Z"/>
      <path class="st2" d="M48.7,33.8c8.5-4,18.6-3.3,26.6,1.9,0-15.4-12.5-27.9-27.8-27.9s-27.8,12.5-27.8,27.9,0,.2,0,.3c4.6-3.4,10.2-5.3,16.4-5.3s8.9,1.1,12.7,3.1Z"/>
      <path class="st4" d="M48.7,33.8c8.9,4.6,15,13.9,15.1,24.6,6.9-5.1,11.5-13.3,11.5-22.6h0c-8-5.3-18.1-5.9-26.6-2Z"/>
      <path class="st6" d="M40.7,78.3c-5.2-5.2-7.8-12-8-18.8-7.8-4.9-13-13.5-13.1-23.4-6.9,5.1-11.5,13.3-11.5,22.6,0,15.4,12.5,27.9,27.8,27.9s8-.9,11.5-2.5c-2.7-1.8-4.9-3.9-6.8-5.8Z"/>
      <path class="st5" d="M63.8,58.7c0,0,0-.2,0-.3-4.6,3.4-10.2,5.3-16.4,5.3s-10.4-1.5-14.7-4.2c.2,6.8,2.8,13.6,8,18.8,1.9,1.9,4.1,4,6.8,5.8,9.6-4.4,16.3-14.1,16.3-25.4h0Z"/>
      <path class="st7" d="M32.8,59.5c-.2-7.3,2.5-14.7,8.1-20.3,2.3-2.3,5-4.1,7.8-5.4-3.8-2-8.1-3.1-12.7-3.1s-11.8,2-16.4,5.3c.1,9.9,5.3,18.6,13.1,23.4Z"/>
      <path class="st1" d="M48.7,33.8c-2.8,1.3-5.5,3.1-7.8,5.4-5.6,5.6-8.3,12.9-8.1,20.3,4.3,2.7,9.3,4.2,14.7,4.2s11.8-2,16.4-5.3c-.1-10.7-6.2-20-15.1-24.6Z"/>
    </g>
  </g>
</svg>