<svg width="32" height="32" viewBox="0 0 21 32" fill="none" xmlns="http://www.w3.org/2000/svg">
<path d="M27.1003 6.38519L27.1006 6.38497C27.1041 6.38148 27.1069 6.37733 27.1088 6.37274C27.1107 6.36817 27.1117 6.36326 27.1117 6.3583C27.1117 6.35334 27.1107 6.34843 27.1088 6.34385C27.1069 6.33928 27.1041 6.33512 27.1006 6.33163L27.1003 6.33141L25.6684 4.89943C25.6684 4.89942 25.6684 4.89942 25.6683 4.89941C25.661 4.89208 25.651 4.88796 25.6407 4.88796C25.6303 4.88796 25.6203 4.89208 25.613 4.89941L27.1003 6.38519ZM27.1003 6.38519L25.307 8.17851L23.8197 6.69267L25.6129 4.89943L27.1003 6.38519ZM22.547 7.96531L18.0754 12.4354C17.9066 12.6041 17.6777 12.6989 17.4391 12.6989C17.2004 12.6989 16.9715 12.6041 16.8028 12.4354L16.8027 12.4354L16.5948 12.2274C16.5948 12.2274 16.5948 12.2274 16.5947 12.2274C16.4041 12.0369 16.1708 11.8944 15.9143 11.8117C15.6577 11.729 15.3852 11.7084 15.1191 11.7516C14.8531 11.7948 14.6011 11.9007 14.3839 12.0604C14.1668 12.2201 13.9906 12.4291 13.8701 12.6702L13.3277 13.755L13.3277 13.755C13.0659 14.2783 12.6393 14.7009 12.1136 14.9578C11.588 15.2146 10.9926 15.2914 10.4191 15.1764C10.4189 15.1764 10.4188 15.1764 10.4186 15.1763L10.3268 15.1589L10.3259 15.1588C9.53964 15.0017 8.72501 15.0701 7.97599 15.3561C7.22696 15.6421 6.57406 16.134 6.09262 16.7751C5.23079 17.9238 4.81232 19.3448 4.91407 20.7771C5.01583 22.2095 5.63099 23.5571 6.64656 24.5724L6.64657 24.5724L7.42577 25.3516L7.42578 25.3516C8.44103 26.3672 9.78862 26.9823 11.221 27.0841C12.6534 27.1858 14.0744 26.7674 15.223 25.9055L15.2831 25.9855L15.223 25.9055C15.8645 25.4243 16.3567 24.7714 16.643 24.0224C16.9292 23.2735 16.9979 22.4589 16.8411 21.6727C16.841 21.6725 16.841 21.6724 16.841 21.6723L16.8219 21.5802L16.8218 21.5795C16.7069 21.0057 16.7839 20.4099 17.0411 19.8842C17.2982 19.3585 17.7212 18.932 18.2447 18.6705L22.547 7.96531ZM22.547 7.96531L24.0344 9.45269L19.5628 13.9228L19.5627 13.9228C19.394 14.0916 19.2992 14.3205 19.2992 14.5591C19.2992 14.7977 19.394 15.0266 19.5627 15.1954L19.563 15.1957L19.7707 15.4017C19.7707 15.4018 19.7707 15.4018 19.7708 15.4018C20.5913 16.224 20.3661 17.6082 19.3279 18.1281L18.2448 18.6704L22.547 7.96531ZM24.3404 3.62513L24.3403 3.62519L17.402 10.5635C17.0078 10.2877 16.5607 10.0958 16.0885 10.0002C15.5881 9.89889 15.0716 9.90819 14.5752 10.0274C14.0788 10.1467 13.6145 10.373 13.2147 10.6905C12.8149 11.008 12.4894 11.409 12.2608 11.8655C12.2608 11.8655 12.2608 11.8655 12.2608 11.8655L11.7184 12.9487L11.7183 12.9489C11.6335 13.1192 11.495 13.2569 11.3241 13.3406C11.1533 13.4244 10.9596 13.4495 10.7731 13.4122L10.679 13.3931L10.6786 13.393C9.55935 13.1695 8.39964 13.267 7.33339 13.6743C6.26714 14.0816 5.33781 14.7822 4.65268 15.6951L4.65267 15.6951C3.5309 17.1903 2.98626 19.0401 3.11876 20.9047C3.25126 22.7693 4.05202 24.5234 5.37395 25.845L6.15314 26.6242C7.47474 27.9461 9.22891 28.7469 11.0935 28.8794C12.958 29.0119 14.8078 28.4673 16.3031 27.3455L16.3031 27.3455C17.216 26.6604 17.9166 25.731 18.3239 24.6648C18.7311 23.5987 18.8287 22.4392 18.6052 21.32C18.6052 21.3199 18.6052 21.3197 18.6051 21.3195L18.5877 21.2277L18.5875 21.2265C18.5497 21.0399 18.5745 20.846 18.658 20.6749C18.7415 20.5037 18.879 20.3649 19.0493 20.2798C19.0493 20.2798 19.0494 20.2798 19.0494 20.2798L20.1325 19.739L20.1326 19.7389C20.5894 19.5104 20.9906 19.1848 21.3083 18.7849C21.626 18.385 21.8524 17.9205 21.9717 17.4239C22.0909 16.9272 22.1001 16.4106 21.9987 15.91C21.9029 15.4376 21.7108 14.9904 21.4347 14.5961L28.373 7.65781L28.373 7.65775C28.7173 7.31292 28.9107 6.84557 28.9107 6.3583C28.9107 5.87103 28.7173 5.40368 28.373 5.05885L28.373 5.05879L26.9394 3.62519L26.9393 3.62513C26.5945 3.28086 26.1271 3.0875 25.6399 3.0875C25.1526 3.0875 24.6852 3.28086 24.3404 3.62513ZM15.0512 19.1799C15.2586 19.0908 15.4462 18.9613 15.603 18.799C15.9127 18.4783 16.084 18.0489 16.0801 17.6032C16.0763 17.1575 15.8975 16.7311 15.5823 16.4159C15.2671 16.1007 14.8407 15.9219 14.395 15.918C13.9492 15.9142 13.5198 16.0855 13.1992 16.3952C13.0368 16.552 12.9073 16.7396 12.8182 16.947C12.7291 17.1544 12.6822 17.3775 12.6803 17.6032C12.6783 17.8289 12.7213 18.0528 12.8068 18.2617C12.8923 18.4706 13.0185 18.6604 13.1781 18.82C13.3377 18.9797 13.5275 19.1059 13.7365 19.1914C13.9454 19.2768 14.1692 19.3199 14.395 19.3179C14.6207 19.3159 14.8438 19.269 15.0512 19.1799Z" fill="black" stroke="black" stroke-width="0.2"/>
</svg>
