<svg width="80" height="40" viewBox="0 0 80 40" fill="none" xmlns="http://www.w3.org/2000/svg">
<path d="M58.7412 14.7207V16.154H60.1411C60.7523 16.154 61.1535 16.5397 61.3827 16.7886C61.566 16.9939 65.5966 21.5638 65.6933 21.6841C65.7901 21.8043 65.7901 21.8062 65.7901 21.8823V24.1466C65.7901 24.2504 65.7798 24.3538 65.7596 24.4557C65.7013 24.5887 65.5881 24.6897 65.4491 24.731C65.3166 24.7474 65.1836 24.7559 65.0497 24.7559L63.6489 24.755V26.1882H71.5077V24.755H70.0288C69.8968 24.755 69.7643 24.7465 69.6328 24.7291C69.4942 24.6878 69.381 24.5868 69.3242 24.4538C69.3035 24.3519 69.2927 24.2481 69.2922 24.1447V21.8814C69.2833 21.8072 69.3021 21.732 69.3448 21.6705L73.7048 16.6965C74.1055 16.2507 74.3131 16.154 74.8378 16.154H76.2843V14.7207H69.8076V16.1512H70.7852C70.936 16.1418 71.0665 16.2573 71.0755 16.4081C71.0792 16.4739 71.0595 16.5387 71.0196 16.5908C70.9989 16.62 68.3085 19.7843 68.2742 19.8153C68.2399 19.8464 68.2188 19.8388 68.1939 19.8055C68.1685 19.7717 65.5101 16.5913 65.5101 16.5913C65.3227 16.3611 65.4688 16.1516 65.6891 16.1516H66.6413V14.7212L58.7412 14.7207Z" fill="#0F0F0F"/>
<path d="M39.4658 14.7207V16.154H40.7201C41.6263 16.154 41.6878 16.6585 41.6878 17.0982V23.8065C41.6878 24.2082 41.7113 24.7587 41.134 24.7587H39.5856V26.191H46.1948V24.7587H44.5825C43.9389 24.7587 43.9093 24.4651 43.9023 23.8384V18.0918L52.9792 26.191H55.2876L55.1655 17.0437C55.1772 16.3752 55.2181 16.1526 55.9101 16.1526H57.357V14.7207H50.6144V16.1526H52.0951C52.7748 16.1526 52.889 16.4152 52.8974 17.0437L52.9787 21.8307L45.0993 14.7207H39.4658Z" fill="#0F0F0F"/>
<path d="M9.70548 14C8.28537 14 6.67169 14.2668 5.30842 14.8794C4.03629 15.4478 3.00001 16.3611 3.00001 17.8751C2.99813 18.6681 3.2997 19.4315 3.84275 20.0093C4.21058 20.3494 4.80438 20.9267 6.35508 21.2668C7.04799 21.4139 8.53011 21.6493 10.0057 21.8047C11.4812 21.9602 12.9126 22.0983 13.4984 22.2552C13.9649 22.3736 14.7489 22.5352 14.7489 23.4142C14.7489 24.294 13.924 24.5576 13.7803 24.6144C13.6365 24.6722 12.6458 25.1265 10.8663 25.1265C9.68763 25.0936 8.51931 24.8925 7.39704 24.5299C6.73325 24.2922 6.03704 23.9802 5.38782 23.1868C5.12569 22.8133 4.98055 22.3713 4.96975 21.9151H3.3575V26.4291H5.14872V25.818C5.14825 25.6766 5.26147 25.562 5.40287 25.561C5.44985 25.561 5.49587 25.5737 5.5358 25.5977C6.3795 25.9655 7.2575 26.2492 8.15617 26.4456C9.09711 26.642 9.70548 26.7843 10.8752 26.7843C12.1093 26.8073 13.3396 26.634 14.5187 26.2694C15.3018 26.0547 16.0366 25.6921 16.6834 25.2007C17.421 24.6346 17.8498 23.7557 17.8428 22.8251C17.8494 21.9537 17.513 21.1147 16.9066 20.4885C16.5693 20.1615 16.1789 19.8942 15.7519 19.6988C15.2924 19.4911 14.8156 19.3248 14.3271 19.2017C13.3979 18.9744 11.3111 18.6902 10.3129 18.5906C9.26623 18.4825 7.45011 18.3308 6.72478 18.1067C6.50493 18.0377 6.05632 17.8253 6.05632 17.3048C6.05632 16.9342 6.26159 16.6204 6.66606 16.3667C7.30965 15.9636 8.6081 15.7128 9.96244 15.7128C11.2736 15.6968 12.5734 15.9505 13.7821 16.4583C14.1067 16.5997 14.4121 16.782 14.6907 17.0009C15.1449 17.3889 15.4597 17.9151 15.586 18.4985H17.0329V14.5694H15.4207V15.025C15.4207 15.1721 15.2741 15.3652 14.9805 15.2054C14.2538 14.8282 12.2103 14.0103 9.70548 14Z" fill="#0F0F0F"/>
<path d="M29.1082 14.001C26.5681 14.001 23.8712 14.8804 22.3468 16.2653C21.1719 17.3349 20.5034 18.8518 20.5072 20.441C20.4889 22.0373 21.1592 23.5641 22.3468 24.6314C23.9887 26.1079 26.4507 26.8985 29.1082 26.8985C31.7699 26.8985 34.2851 26.1158 35.887 24.6314C37.0379 23.5406 37.6932 22.0265 37.7012 20.441C37.7172 18.8556 37.0572 17.3382 35.887 16.2685C34.1676 14.7089 31.9179 14.001 29.1082 14.001ZM29.1082 15.6776C30.4978 15.6776 31.8357 16.1774 32.7372 17.0643C33.609 17.9231 34.0652 19.137 34.0652 20.4354C34.0652 21.7954 33.6504 22.8984 32.7376 23.8065C31.8244 24.715 30.517 25.2021 29.1087 25.2021C27.7102 25.2021 26.3751 24.7047 25.4736 23.8065C24.6026 22.9026 24.1282 21.6897 24.1545 20.4354C24.1545 19.1426 24.6045 17.925 25.4736 17.0643C26.3746 16.1732 27.7191 15.6776 29.1082 15.6776Z" fill="#0F0F0F"/>
</svg>
